<svg width="93" height="82" viewBox="0 0 93 82" fill="none" xmlns="http://www.w3.org/2000/svg">
<path d="M83.2767 9.94342C81.1486 7.81427 78.6218 6.12528 75.8407 4.97293C73.0596 3.82059 70.0788 3.22748 67.0684 3.22748C64.058 3.22748 61.0772 3.82059 58.2961 4.97293C55.515 6.12528 52.9882 7.81427 50.8601 9.94342L46.4434 14.3601L42.0267 9.94342C37.728 5.6447 31.8977 3.22971 25.8184 3.22971C19.7391 3.22971 13.9088 5.6447 9.61007 9.94342C5.31136 14.2421 2.89636 20.0724 2.89636 26.1517C2.89636 32.2311 5.31136 38.0614 9.61007 42.3601L14.0267 46.7767L46.4434 79.1934L78.8601 46.7767L83.2767 42.3601C85.4059 40.2319 87.0949 37.7051 88.2472 34.9241C89.3996 32.143 89.9927 29.1621 89.9927 26.1517C89.9927 23.1414 89.3996 20.1605 88.2472 17.3794C87.0949 14.5984 85.4059 12.0716 83.2767 9.94342V9.94342Z" stroke="white" stroke-width="5" stroke-linecap="round" stroke-linejoin="round"/>
</svg>
