<svg width="87" height="87" viewBox="0 0 87 87" fill="none" xmlns="http://www.w3.org/2000/svg">
<path d="M64.5 5.45178C65.5944 4.35743 66.8935 3.48935 68.3234 2.89709C69.7532 2.30483 71.2857 2 72.8333 2C74.381 2 75.9135 2.30483 77.3433 2.89709C78.7731 3.48935 80.0723 4.35743 81.1667 5.45178C82.261 6.54613 83.1291 7.84531 83.7214 9.27515C84.3136 10.705 84.6184 12.2375 84.6184 13.7851C84.6184 15.3328 84.3136 16.8652 83.7214 18.2951C83.1291 19.7249 82.261 21.0241 81.1667 22.1184L24.9167 78.3684L2 84.6184L8.25 61.7018L64.5 5.45178Z" stroke="white" stroke-width="4" stroke-linecap="round" stroke-linejoin="round"/>
</svg>
